<!DOCTYPE svg PUBLIC "-//W3C//DTD SVG 1.1//EN" "http://www.w3.org/Graphics/SVG/1.1/DTD/svg11.dtd">
<!-- Uploaded to: SVG Repo, www.svgrepo.com, Transformed by: SVG Repo Mixer Tools -->
<svg height="800px" width="800px" version="1.1" id="Layer_1" xmlns="http://www.w3.org/2000/svg" xmlns:xlink="http://www.w3.org/1999/xlink" viewBox="0 0 512 512" xml:space="preserve" fill="#000000">
<g id="SVGRepo_bgCarrier" stroke-width="0"/>
<g id="SVGRepo_tracerCarrier" stroke-linecap="round" stroke-linejoin="round"/>
<g id="SVGRepo_iconCarrier"> <path style="fill:#394049;" d="M125.352,292.262l-58.078,70.291c-5.324,6.444-14.662,7.81-21.609,3.163l-10.211-6.831 c-4.834-3.234-5.654-10.013-1.73-14.306l67.528-73.888L125.352,292.262z"/> <path style="opacity:0.3;enable-background:new ;" d="M101.253,270.692l-67.528,73.888c-0.722,0.79-1.281,1.665-1.686,2.586 c11.054,6.631,24.23,9.625,38.859,11.004l54.454-65.907L101.253,270.692z"/> <path style="fill:#394049;" d="M386.648,292.262l58.077,70.291c5.324,6.444,14.662,7.81,21.609,3.163l10.211-6.831 c4.834-3.234,5.654-10.013,1.73-14.306l-67.528-73.888L386.648,292.262z"/> <path style="opacity:0.3;enable-background:new ;" d="M410.747,270.692l67.528,73.888c0.722,0.79,1.281,1.665,1.686,2.586 c-11.054,6.631-24.23,9.625-38.859,11.004l-54.454-65.907L410.747,270.692z"/> <path style="fill:#C3C4C7;" d="M255.999,143.512c40.958,0,105.538,1.162,138.119,3.897c33.132,2.219,59.301,3.972,78.966,17.69 c27.301,19.045,30.982,53.112,30.982,83.925c0,37.243-3.656,63.841-21.852,81.345c-18.519,17.814-45.803,19.557-76.942,19.91 c-1.502,0.018-2.984,0.026-4.435,0.026c-0.003,0-0.003,0-0.007,0c-26.623,0-54.312-2.506-76.434-20.673 c-18.542-15.227-30.011-37.966-43.552-72.098c-1.853-4.67-3.581-9.215-5.157-13.637c-5.04-13.314-11.037-14.465-19.687-14.465 c-8.65,0-14.647,1.151-19.687,14.465c-1.576,4.421-3.304,8.967-5.158,13.637c-13.541,34.132-25.01,56.87-43.552,72.098 c-22.123,18.167-49.811,20.673-76.435,20.673c-0.003,0-0.003,0-0.007,0c-1.451,0-2.933-0.008-4.435-0.026 c-31.139-0.353-58.423-2.096-76.942-19.91c-18.194-17.505-21.85-44.103-21.85-81.345c0-30.812,3.681-64.88,30.982-83.925 c19.665-13.718,45.834-15.471,78.966-17.69C150.462,144.674,215.041,143.512,255.999,143.512z"/> <path style="fill:#ff6600;" d="M131.614,169.6c-70.262,5.019-100.603,2.129-100.603,79.424c0,69.033,14.07,77.476,75.98,78.18 s77.085-13.582,102.715-78.18C240.371,171.728,220.257,163.267,131.614,169.6z"/> <path style="opacity:0.15;enable-background:new ;" d="M223.073,195.85c-0.579,11.87-5.145,27.642-13.368,48.37 c-25.629,64.598-40.804,78.883-102.715,78.18c-60.955-0.693-75.534-8.887-75.97-75.029c-0.003,0.551-0.011,1.093-0.011,1.652 c0,69.033,14.07,77.476,75.981,78.18c61.909,0.703,77.085-13.582,102.715-78.18C219.092,225.363,223.71,208.16,223.073,195.85z"/> <path style="fill:#ff6600;" d="M380.386,169.6c70.262,5.019,100.604,2.129,100.604,79.424c0,69.033-14.07,77.476-75.981,78.18 s-77.085-13.582-102.715-78.18C271.629,171.728,291.743,163.267,380.386,169.6z"/> <path style="fill:#FFFFFF;" d="M255.999,143.512c-2.557,0-5.206,0.004-7.933,0.014v51.173c0,4.381,3.551,7.933,7.933,7.933 c4.382,0,7.933-3.552,7.933-7.933v-51.173C261.206,143.516,258.557,143.512,255.999,143.512z"/> <path style="opacity:0.15;enable-background:new ;" d="M288.927,195.85c0.578,11.87,5.144,27.642,13.368,48.37 c25.629,64.598,40.804,78.883,102.715,78.18c60.955-0.693,75.534-8.887,75.97-75.029c0.003,0.551,0.011,1.093,0.011,1.652 c0,69.033-14.07,77.476-75.981,78.18s-77.085-13.582-102.715-78.18C292.908,225.363,288.29,208.16,288.927,195.85z"/> <g> <path style="opacity:0.15;fill:#FFFFFF;enable-background:new ;" d="M131.614,169.6c-70.262,5.019-100.604,2.129-100.604,79.424 c0,31.836,2.998,50.78,12.295,62.027l142.552-142.552C171.937,167.35,153.954,168.004,131.614,169.6z"/> <path style="opacity:0.15;fill:#FFFFFF;enable-background:new ;" d="M473.26,200.211L353.183,320.288 c12.916,5.434,29.266,7.173,51.827,6.916c61.909-0.703,75.981-9.145,75.981-78.18C480.991,226.838,478.485,211.268,473.26,200.211z "/> </g> <path d="M131.049,161.687c-4.194,0.299-8.245,0.571-12.156,0.832c-61.783,4.138-95.816,6.416-95.816,86.504 c0,33.263,2.879,56.648,17.208,70.431c13.199,12.695,33.595,15.306,66.616,15.681c1.509,0.017,2.999,0.026,4.474,0.026 c26.993,0,48.575-3.064,65.473-16.318c16.623-13.037,27.338-34.4,40.23-66.895c15.71-39.595,17.96-61.422,7.766-75.339 C212.121,159.24,183.274,157.957,131.049,161.687z M202.33,246.098c-25.217,63.56-38.552,73.828-95.25,73.172 c-28.265-0.322-46.456-2.265-55.797-11.25c-8.881-8.542-12.341-25.083-12.341-58.996c0-32.337,5.298-49.83,17.714-58.491 c12.595-8.787,33.862-10.211,63.295-12.182c3.934-0.263,8.008-0.536,12.227-0.838c43.216-3.087,71.647-2.745,79.866,8.475 C218.386,194.643,215.39,213.183,202.33,246.098z M487.714,336.086C507.937,316.632,512,288.351,512,249.024 c0-32.859-4.084-69.299-34.376-90.431c-21.46-14.97-48.578-16.796-82.905-19.095c-34.324-2.875-101.75-3.919-138.719-3.919 s-104.394,1.044-138.72,3.919c-34.327,2.299-61.445,4.124-82.905,19.095C4.084,179.724,0,216.164,0,249.024 c0,39.327,4.063,67.609,24.286,87.063c1.159,1.115,2.348,2.165,3.558,3.17c-3.413,3.752-5.024,8.788-4.416,13.825 c0.611,5.051,3.386,9.57,7.614,12.397l10.211,6.831c4.141,2.77,8.832,4.113,13.478,4.111c6.99,0,13.882-3.037,18.657-8.815 l8.504-10.292c7.929,0.593,16.2,0.8,24.742,0.896c1.535,0.018,3.047,0.026,4.536,0.026c28.097,0,57.414-2.723,81.468-22.476 c19.868-16.316,31.872-39.965,45.893-75.304c1.988-5.011,3.697-9.532,5.227-13.821c3.522-9.273,5.903-9.272,12.241-9.272 c6.338,0,8.719-0.001,12.241,9.272c1.531,4.288,3.241,8.81,5.227,13.822c14.021,35.337,26.024,58.987,45.893,75.302 c24.053,19.753,53.37,22.476,81.475,22.476c1.481,0,2.993-0.008,4.525-0.026c8.543-0.097,16.815-0.303,24.745-0.896l8.503,10.291 c4.776,5.78,11.666,8.816,18.658,8.815c4.647,0,9.338-1.342,13.479-4.113l10.208-6.831c4.229-2.828,7.003-7.347,7.615-12.398 c0.609-5.038-1.002-10.073-4.416-13.825C485.366,338.252,486.555,337.201,487.714,336.086z M61.156,357.5 c-2.741,3.317-7.505,4.014-11.081,1.623l-10.211-6.831c-0.495-0.331-0.645-0.789-0.684-1.115c-0.039-0.326-0.002-0.806,0.4-1.246 l1.823-1.994c6.773,3.27,14.094,5.489,21.873,6.999L61.156,357.5z M472.82,351.176c-0.039,0.326-0.19,0.784-0.686,1.115 l-10.208,6.831c-3.578,2.394-8.341,1.695-11.083-1.623l-2.119-2.564c7.78-1.51,15.101-3.73,21.873-6.999l1.823,1.994 C472.822,350.369,472.859,350.851,472.82,351.176z M476.715,324.651c-16.424,15.799-42.114,17.361-71.535,17.694 c-1.471,0.017-2.922,0.025-4.349,0.025c-25.147,0-51.203-2.286-71.399-18.87c-17.218-14.141-28.15-35.968-41.213-68.891 c-1.929-4.867-3.585-9.242-5.058-13.376c-0.018-0.049-0.035-0.097-0.054-0.145c-6.176-16.312-14.95-19.59-27.106-19.59 c-12.156,0-20.93,3.277-27.106,19.59c-0.019,0.048-0.036,0.096-0.054,0.145c-1.473,4.135-3.129,8.51-5.058,13.375 c-13.063,32.924-23.995,54.752-41.213,68.893c-20.196,16.585-46.251,18.87-71.406,18.87c-1.422,0-2.872-0.008-4.345-0.025 c-29.419-0.333-55.108-1.895-71.532-17.694c-16.171-15.556-19.419-40.471-19.419-75.629c0-28.766,3.278-60.459,27.587-77.417 c17.857-12.457,43.055-14.145,74.957-16.281c0.044-0.003,0.089-0.006,0.133-0.011c33.82-2.839,100.731-3.869,137.456-3.869 s103.636,1.03,137.456,3.869c0.044,0.003,0.089,0.007,0.133,0.011c31.902,2.137,57.1,3.824,74.957,16.281 c13.641,9.517,27.587,26.156,27.587,77.417C496.134,284.181,492.885,309.096,476.715,324.651z M393.108,162.519 c-3.911-0.262-7.962-0.533-12.156-0.832c-52.228-3.731-81.072-2.447-93.797,14.924c-10.194,13.916-7.944,35.744,7.766,75.338 c12.892,32.494,23.607,53.858,40.23,66.895c16.9,13.255,38.479,16.318,65.473,16.318c1.476,0,2.968-0.01,4.474-0.026 c33.022-0.374,53.419-2.985,66.618-15.681c14.328-13.784,17.208-37.169,17.208-70.431 C488.924,168.935,454.891,166.656,393.108,162.519z M460.717,308.02c-9.341,8.986-27.531,10.929-55.797,11.25 c-56.699,0.629-70.034-9.613-95.25-73.172c-13.06-32.915-16.056-51.455-9.714-60.11c5.497-7.506,20.036-10.143,41.999-10.143 c10.868,0,23.559,0.646,37.867,1.668c4.217,0.301,8.293,0.574,12.227,0.838c29.433,1.971,50.7,3.395,63.295,12.182 c12.416,8.661,17.714,26.154,17.714,58.491C473.058,282.936,469.598,299.478,460.717,308.02z"/> </g>
</svg>